<svg xmlns="http://www.w3.org/2000/svg" width="90.016" height="90.015" viewBox="0 0 90.016 90.015">
  <path id="Trazado_34" data-name="Trazado 34" d="M164.265,282.9a9.82,9.82,0,0,0-8.631,14.5l-16.086,16.086a13.007,13.007,0,0,0-16.032,0l-12.551-12.551a6.454,6.454,0,0,0,.927-3.3,6.546,6.546,0,1,0-6.546,6.546,6.469,6.469,0,0,0,3.3-.927L121.2,315.8a13.014,13.014,0,0,0,0,16.03l-20.725,20.728a9.732,9.732,0,1,0,2.045,2.583l21-21a13.011,13.011,0,0,0,6.38,2.648v16.629a9.819,9.819,0,1,0,3.274,0V336.8a13.017,13.017,0,0,0,6.38-2.648L152.1,346.7a6.452,6.452,0,0,0-.93,3.306,6.546,6.546,0,1,0,6.546-6.546,6.454,6.454,0,0,0-3.3.927l-12.551-12.551a13.008,13.008,0,0,0,0-16.03l15.819-15.819a9.813,9.813,0,1,0,6.583-17.083Zm-62.191,14.73a3.273,3.273,0,1,1,3.272,3.272A3.276,3.276,0,0,1,102.074,297.632ZM93.89,366.371a6.547,6.547,0,1,1,6.546-6.546A6.554,6.554,0,0,1,93.89,366.371ZM138.08,363.1a6.546,6.546,0,1,1-6.546-6.546A6.553,6.553,0,0,1,138.08,363.1Zm-6.546-29.46a9.82,9.82,0,1,1,9.819-9.82A9.83,9.83,0,0,1,131.533,333.638ZM160.993,350a3.273,3.273,0,1,1-3.274-3.274A3.276,3.276,0,0,1,160.993,350Zm3.272-50.736a6.547,6.547,0,1,1,6.548-6.546A6.554,6.554,0,0,1,164.265,299.269Z" transform="translate(-84.07 -282.902)" fill="#2e5f98"/>
</svg>
