<svg xmlns="http://www.w3.org/2000/svg" width="76.82" height="76.821" viewBox="0 0 76.82 76.821">
  <g id="Grupo_13" data-name="Grupo 13" transform="translate(0 0)">
    <path id="Trazado_59" data-name="Trazado 59" d="M585.151,420.73H555.7V409.207a6.41,6.41,0,0,0-6.4-6.4H518.574a6.41,6.41,0,0,0-6.4,6.4v64.018a6.41,6.41,0,0,0,6.4,6.4H549.3a6.409,6.409,0,0,0,6.4-6.4V461.7h29.448a3.84,3.84,0,0,0,3.841-3.841V424.571A3.84,3.84,0,0,0,585.151,420.73Zm-19.205,2.561h5.122v14.252l-1.85-1.234a1.28,1.28,0,0,0-1.421,0l-1.85,1.234Zm-2.56,0v5.121h-12.8v-3.841a1.28,1.28,0,0,1,1.28-1.28Zm0,7.682v2.561h-12.8v-2.561Zm-48.653-21.766a3.841,3.841,0,0,1,3.841-3.841H549.3a3.842,3.842,0,0,1,3.842,3.841v3.842H514.733Zm38.411,64.018a3.842,3.842,0,0,1-3.842,3.841H518.574a3.841,3.841,0,0,1-3.841-3.841v-3.841h38.411Zm0-6.4H514.733V415.609h38.411v5.122h-1.281a3.841,3.841,0,0,0-3.841,3.841V457.86a3.841,3.841,0,0,0,3.841,3.841h1.281Zm33.289-8.963a1.281,1.281,0,0,1-1.281,1.28H551.862a1.28,1.28,0,0,1-1.28-1.28V436.094h12.8v3.842a1.281,1.281,0,0,0,1.99,1.065l3.13-2.09,3.13,2.087a1.281,1.281,0,0,0,1.992-1.062v-3.842h12.8Zm0-24.326h-12.8v-2.561h12.8Zm0-5.122h-12.8v-5.121h11.522a1.281,1.281,0,0,1,1.281,1.28Z" transform="translate(-512.172 -402.805)" fill="#2e5f98"/>
    <path id="Trazado_60" data-name="Trazado 60" d="M531,418.333a11.536,11.536,0,0,0-11.524,11.522c0,8.039,10.094,20.742,10.523,21.287a1.285,1.285,0,0,0,2,0c.43-.538,10.523-13.248,10.523-21.287A11.534,11.534,0,0,0,531,418.333Zm0,29.9c-2.527-3.4-8.963-12.6-8.963-18.378a8.963,8.963,0,0,1,17.926,0C539.966,435.626,533.529,444.836,531,448.234Z" transform="translate(-509.236 -396.567)" fill="#2e5f98"/>
    <path id="Trazado_61" data-name="Trazado 61" d="M529.535,421.987a6.4,6.4,0,1,0,6.4,6.4A6.4,6.4,0,0,0,529.535,421.987Zm0,10.243a3.841,3.841,0,1,1,3.841-3.842A3.841,3.841,0,0,1,529.535,432.23Z" transform="translate(-507.768 -395.099)" fill="#2e5f98"/>
  </g>
</svg>
