<svg xmlns="http://www.w3.org/2000/svg" width="78.592" height="78.463" viewBox="0 0 78.592 78.463">
  <g id="world" transform="translate(0.413 0.3)">
    <g id="Grupo_14" data-name="Grupo 14" transform="translate(0 0)">
      <path id="Trazado_91" data-name="Trazado 91" d="M38.954.05A38.932,38.932,0,0,0,3.159,23.658l-.485.161.188.565A38.929,38.929,0,1,0,38.954.05ZM69.491,58.61l-2-2V51.959a1.3,1.3,0,0,0-.13-.58L62.3,41.271V36.386a1.3,1.3,0,0,0-.577-1.08l-3.893-2.6a1.3,1.3,0,0,0-1.038-.179l-4.768,1.191-8.008-3.436-1.1-7.719,3.054-3.052h6.555l2.206,3.316a1.3,1.3,0,0,0,.867.559l7.786,1.3A1.287,1.287,0,0,0,64,24.639l7.171-2.39A36.206,36.206,0,0,1,69.491,58.61ZM64.139,12.838l-2.11,1.407-5.883-1.177L52.329,11.8a1.274,1.274,0,0,0-.724-.029L46.78,12.974l-2.115-.7,1.568-3.135h4.389A1.3,1.3,0,0,0,51.2,9l4.49-2.245A36.47,36.47,0,0,1,64.139,12.838ZM24.728,5.543,27.843,7.62a1.3,1.3,0,0,0,.507.2l6.289,1.049L34.025,10.7,30.748,11.8a1.3,1.3,0,0,0-.7.562l-3.727,6.211-5.986,3.592-8.825,1.26a1.3,1.3,0,0,0-1.116,1.283V28.6a1.3,1.3,0,0,0,.38.917l2.215,2.215v2.229l-5.4-3.6L5.631,24.487A36.545,36.545,0,0,1,24.728,5.543ZM21.034,48.092l-5.866-1.174-2.18-4.349v-3.05l4.835-4.835,1.79,3.58a1.3,1.3,0,0,0,1.161.718h8.35l3.516,5.859a1.3,1.3,0,0,0,1.112.629h3.608l-.908,4.551-4.913,4.913a1.3,1.3,0,0,0-.382.917V59.1l-4.672,3.5a1.3,1.3,0,0,0-.519,1.038v4.687l-1.614-.535-2.279-5.7V49.363A1.3,1.3,0,0,0,21.034,48.092Zm-3.9,19.949A36.327,36.327,0,0,1,4.19,28.371l1.078,3.234a1.3,1.3,0,0,0,.51.67l6.469,4.312-1.476,1.477a1.3,1.3,0,0,0-.38.917v3.893a1.3,1.3,0,0,0,.136.58l2.6,5.191a1.3,1.3,0,0,0,.908.692l5.45,1.089V62.341a1.3,1.3,0,0,0,.092.481l2.6,6.489a1.3,1.3,0,0,0,.8.749l3.893,1.3a1.275,1.275,0,0,0,.4.067,1.3,1.3,0,0,0,1.3-1.3v-5.84l4.672-3.5a1.3,1.3,0,0,0,.519-1.038V56.389l4.811-4.811a1.3,1.3,0,0,0,.354-.663l1.3-6.489a1.3,1.3,0,0,0-1.272-1.552H34.486L30.97,37.016a1.3,1.3,0,0,0-1.112-.629H21.576l-2.229-4.473a1.3,1.3,0,0,0-.954-.7,1.272,1.272,0,0,0-1.125.363l-1.684,1.678V31.2a1.3,1.3,0,0,0-.38-.917l-2.215-2.215V25.832l7.971-1.138a1.3,1.3,0,0,0,.484-.173l6.489-3.893a1.3,1.3,0,0,0,.444-.444l3.647-6.077,3.438-1.147a1.284,1.284,0,0,0,.82-.82l1.3-3.893a1.3,1.3,0,0,0-1.017-1.687L29.048,5.307l-1.32-.88a36.236,36.236,0,0,1,24.958.928L50.315,6.539H45.431a1.3,1.3,0,0,0-1.168.718l-2.6,5.191a1.3,1.3,0,0,0,.751,1.81l3.893,1.3a1.274,1.274,0,0,0,.724.029l4.825-1.206L55.4,15.555a.954.954,0,0,0,.156.042l6.489,1.3a1.289,1.289,0,0,0,.975-.192l2.954-1.97a36.61,36.61,0,0,1,3.9,5.216l-6.385,2.128-6.913-1.152L54.29,17.5a1.3,1.3,0,0,0-1.073-.577H45.431a1.3,1.3,0,0,0-.917.38L40.62,21.194a1.3,1.3,0,0,0-.367,1.1l1.3,9.084a1.3,1.3,0,0,0,.779,1.008l9.084,3.893a1.283,1.283,0,0,0,.825.066l4.634-1.159,2.833,1.892v4.5a1.3,1.3,0,0,0,.13.58L64.9,52.265V57.15a1.3,1.3,0,0,0,.38.917l2.715,2.716A36.327,36.327,0,0,1,17.133,68.041Z" transform="translate(0 -0.05)" fill="#2e5f98" stroke="#3a547c" stroke-linecap="round" stroke-linejoin="round" stroke-width="0.6"/>
    </g>
  </g>
</svg>
