<svg id="truck" xmlns="http://www.w3.org/2000/svg" width="99.018" height="70.963" viewBox="0 0 99.018 70.963">
  <g id="Grupo_16" data-name="Grupo 16" transform="translate(13.202 51.159)">
    <g id="Grupo_15" data-name="Grupo 15" transform="translate(0 0)">
      <path id="Trazado_92" data-name="Trazado 92" d="M78.169,337.067a9.9,9.9,0,1,0,9.9,9.9A9.912,9.912,0,0,0,78.169,337.067Zm0,16.5a6.6,6.6,0,1,1,6.6-6.6A6.608,6.608,0,0,1,78.169,353.57Z" transform="translate(-68.267 -337.067)" fill="#2e5f98"/>
    </g>
  </g>
  <g id="Grupo_18" data-name="Grupo 18" transform="translate(69.312 51.159)">
    <g id="Grupo_17" data-name="Grupo 17" transform="translate(0 0)">
      <path id="Trazado_93" data-name="Trazado 93" d="M368.3,337.067a9.9,9.9,0,1,0,9.9,9.9A9.912,9.912,0,0,0,368.3,337.067Zm0,16.5a6.6,6.6,0,1,1,6.6-6.6A6.608,6.608,0,0,1,368.3,353.57Z" transform="translate(-358.4 -337.067)" fill="#2e5f98"/>
    </g>
  </g>
  <g id="Grupo_20" data-name="Grupo 20" transform="translate(62.711 18.153)">
    <g id="Grupo_19" data-name="Grupo 19" transform="translate(0 0)">
      <path id="Trazado_94" data-name="Trazado 94" d="M360.311,190.262l-14.853-23.1a1.651,1.651,0,0,0-1.388-.758H325.917a1.65,1.65,0,0,0-1.65,1.65v41.257a1.649,1.649,0,0,0,1.65,1.65h6.6v-3.3h-4.951V169.7h15.6l14.1,21.939v16.018h-8.252v3.3h9.9a1.649,1.649,0,0,0,1.65-1.65V191.154A1.646,1.646,0,0,0,360.311,190.262Z" transform="translate(-324.267 -166.4)" fill="#2e5f98"/>
    </g>
  </g>
  <g id="Grupo_22" data-name="Grupo 22" transform="translate(69.313 24.754)">
    <g id="Grupo_21" data-name="Grupo 21">
      <path id="Trazado_95" data-name="Trazado 95" d="M361.7,215.386V203.834h13.2v-3.3H360.051a1.65,1.65,0,0,0-1.65,1.65v14.853a1.649,1.649,0,0,0,1.65,1.65h24.754v-3.3H361.7Z" transform="translate(-358.401 -200.533)" fill="#2e5f98"/>
    </g>
  </g>
  <g id="Grupo_24" data-name="Grupo 24" transform="translate(0 6.601)">
    <g id="Grupo_23" data-name="Grupo 23" transform="translate(0 0)">
      <path id="Trazado_96" data-name="Trazado 96" d="M64.362,106.667H1.65A1.651,1.651,0,0,0,0,108.317v52.81a1.65,1.65,0,0,0,1.65,1.65h13.2v-3.3H3.3V109.967H62.711v49.509H31.356v3.3H64.362a1.649,1.649,0,0,0,1.65-1.65v-52.81A1.65,1.65,0,0,0,64.362,106.667Z" transform="translate(0 -106.667)" fill="#2e5f98"/>
    </g>
  </g>
  <g id="Grupo_26" data-name="Grupo 26" transform="translate(1.65 52.81)">
    <g id="Grupo_25" data-name="Grupo 25">
      <rect id="Rectángulo_14" data-name="Rectángulo 14" width="9.902" height="3.301" fill="#2e5f98"/>
    </g>
  </g>
  <g id="Grupo_28" data-name="Grupo 28" transform="translate(34.656 52.81)">
    <g id="Grupo_27" data-name="Grupo 27">
      <rect id="Rectángulo_15" data-name="Rectángulo 15" width="28.055" height="3.301" fill="#2e5f98"/>
    </g>
  </g>
  <g id="Grupo_30" data-name="Grupo 30" transform="translate(90.766 52.81)">
    <g id="Grupo_29" data-name="Grupo 29">
      <rect id="Rectángulo_16" data-name="Rectángulo 16" width="6.601" height="3.301" fill="#2e5f98"/>
    </g>
  </g>
  <g id="Grupo_32" data-name="Grupo 32" transform="translate(6.601 13.202)">
    <g id="Grupo_31" data-name="Grupo 31" transform="translate(0 0)">
      <rect id="Rectángulo_17" data-name="Rectángulo 17" width="57.76" height="3.301" fill="#2e5f98"/>
    </g>
  </g>
  <g id="Grupo_34" data-name="Grupo 34" transform="translate(21.454 59.411)">
    <g id="Grupo_33" data-name="Grupo 33" transform="translate(0 0)">
      <rect id="Rectángulo_18" data-name="Rectángulo 18" width="3.301" height="3.301" fill="#2e5f98"/>
    </g>
  </g>
  <g id="Grupo_36" data-name="Grupo 36" transform="translate(77.564 59.411)">
    <g id="Grupo_35" data-name="Grupo 35" transform="translate(0 0)">
      <rect id="Rectángulo_19" data-name="Rectángulo 19" width="3.301" height="3.301" fill="#2e5f98"/>
    </g>
  </g>
  <g id="Grupo_38" data-name="Grupo 38" transform="translate(6.601 0)">
    <g id="Grupo_37" data-name="Grupo 37" transform="translate(0 0)">
      <rect id="Rectángulo_20" data-name="Rectángulo 20" width="23.104" height="3.301" fill="#2e5f98"/>
    </g>
  </g>
  <g id="Grupo_40" data-name="Grupo 40" transform="translate(0 0)">
    <g id="Grupo_39" data-name="Grupo 39" transform="translate(0 0)">
      <rect id="Rectángulo_21" data-name="Rectángulo 21" width="3.301" height="3.301" fill="#2e5f98"/>
    </g>
  </g>
</svg>
