<svg xmlns="http://www.w3.org/2000/svg" width="348.45" height="103.134" viewBox="0 0 348.45 103.134">
  <g id="shipro" transform="translate(-0.009 0.036)">
    <g id="Grupo_11" data-name="Grupo 11" transform="translate(0.009 -0.036)">
      <g id="Grupo_9" data-name="Grupo 9" transform="translate(71.222 4.882)">
        <path id="Trazado_62" data-name="Trazado 62" d="M56.843,48.186v1.608c0,7.719,4.181,11.739,12.864,11.739,7.879,0,11.9-4.5,11.9-9.327,0-6.754-4.181-9.648-11.256-11.256l-8.523-2.412C50.25,35,45.426,30.176,45.426,21.01,45.426,9.432,55.074,3,69.868,3c20.1,0,22.191,10.131,22.191,16.724v1.447H79.516V19.885c0-5.789-3.216-9.166-11.1-9.166-5.467,0-10.613,2.412-10.613,9.166,0,5.467,3.377,8.2,11.739,10.774l8.523,2.573c11.1,3.216,15.92,8.04,15.92,16.885,0,13.508-10.131,19.136-26.05,19.136C48.642,69.091,44.3,58.639,44.3,49.634V48.186Z" transform="translate(-44.3 -3)" fill="#fff"/>
        <path id="Trazado_63" data-name="Trazado 63" d="M77.5,3.8H90.043V29.207H113.2V3.8h12.543V67.318H113.2V37.891H90.043V67.479H77.5Z" transform="translate(-24.113 -2.514)" fill="#fff"/>
        <path id="Trazado_64" data-name="Trazado 64" d="M111.2,3.8h12.543V67.318H111.2Z" transform="translate(-3.621 -2.514)" fill="#fff"/>
        <path id="Trazado_65" data-name="Trazado 65" d="M122.6,3.8h24.925c15.116,0,21.709,7.719,21.709,18.493,0,11.417-8.2,18.814-23,18.814h-11.1V67.318H122.6Zm12.543,29.749h9.005c6.754,0,12.543-2.894,12.543-10.935,0-6.915-3.377-11.1-13.508-11.1h-8.04Z" transform="translate(3.31 -2.514)" fill="#fff"/>
        <path id="Trazado_66" data-name="Trazado 66" d="M152.8,3.8h27.658c11.1,0,19.94,4.5,19.94,16.4,0,8.2-4.5,14.472-13.186,15.6v.161c7.879.643,11.9,4.02,12.382,13.025.161,4.02.161,9.005.482,12.864a6.293,6.293,0,0,0,3.7,5.467H189.624c-1.286-1.126-1.769-3.055-2.09-5.628-.482-3.859-.322-7.4-.482-12.06-.161-6.915-2.895-9.97-11.417-9.97H165.343V67.318H152.8Zm22.513,28.3c8.04,0,12.543-3.859,12.543-10.292,0-6.754-3.7-10.292-11.9-10.292H165.343V32.1h9.97Z" transform="translate(21.674 -2.514)" fill="#fff"/>
        <path id="Trazado_67" data-name="Trazado 67" d="M184.3,36.065c0-22.674,7.879-32.965,26.05-32.965,18.01,0,26.05,10.292,26.05,32.965S228.521,69.03,210.35,69.03,184.3,58.739,184.3,36.065Zm39.4-.322c0-21.387-5.95-25.086-13.508-25.086s-13.508,3.7-13.508,25.086c0,21.87,5.95,25.568,13.508,25.568C217.747,61.472,223.7,57.613,223.7,35.743Z" transform="translate(40.827 -2.939)" fill="#fff"/>
      </g>
      <g id="Grupo_10" data-name="Grupo 10">
        <path id="Trazado_68" data-name="Trazado 68" d="M43.006,21.531a48.542,48.542,0,0,1-.161,18.653,28.791,28.791,0,0,1-6.593,14.151c-5.95,6.754-13.829,6.754-22.191,5.789a13.288,13.288,0,0,0-8.2,1.608c-.643.322-4.342,2.573-1.447,2.894,16.885,1.93,38.754-.965,47.277-17.849,4.181-8.362,4.985-19.3,3.216-28.463-.482-2.251-12.382.482-11.9,3.216Z" transform="translate(2.004 10.688)" fill="#fff" opacity="0.7"/>
        <path id="Trazado_69" data-name="Trazado 69" d="M25.788,25.324a22.791,22.791,0,0,1-.161,9.327c-1.608,6.593-5.146,7.558-11.417,6.915-4.663-.482-12.543,5.95-4.5,6.915,10.131,1.126,22.352-1.769,26.694-11.9a24.184,24.184,0,0,0,1.286-14.312c-.8-4.181-12.7-1.286-11.9,3.055Z" transform="translate(3.786 12.363)" fill="#fff"/>
        <path id="Trazado_70" data-name="Trazado 70" d="M12.859,45.691a47.968,47.968,0,0,1,.482-19.136c3.7-15.437,16.4-18.975,31.035-17.528,5.789.643,12.06-7.719,4.02-8.683C30.708-1.425,10.768,2.595,3.371,20.766A50.464,50.464,0,0,0,.959,48.746c1.126,5.628,12.864,2.573,11.9-3.055Z" transform="translate(-0.009 0.036)" fill="#fff" opacity="0.7"/>
        <path id="Trazado_71" data-name="Trazado 71" d="M22.221,33.677a22.063,22.063,0,0,1,.161-9.166c1.286-6.111,4.02-8.2,10.131-7.558,2.734.322,6.271-.322,8.362-2.251,1.608-1.447,1.608-3.377-.965-3.7-10.292-1.126-23.156.965-27.98,11.417a24.76,24.76,0,0,0-1.447,14.472c.482,3.538,12.382.643,11.739-3.216Z" transform="translate(6.066 6.583)" fill="#fff"/>
        <path id="Trazado_72" data-name="Trazado 72" d="M15.382,32,3,36.985l11.739,7.236Z" transform="translate(1.81 19.516)" fill="#fff"/>
        <path id="Trazado_73" data-name="Trazado 73" d="M24.6,9l.482,11.578L36.821,13.5Z" transform="translate(14.944 5.53)" fill="#fff"/>
      </g>
    </g>
    <g id="Grupo_12" data-name="Grupo 12" transform="translate(124.94 82.997)">
      <path id="Trazado_74" data-name="Trazado 74" d="M77.7,52.2h2.09V65.225h8.04v1.769H77.7Z" transform="translate(-77.7 -51.235)" fill="#fff"/>
      <path id="Trazado_75" data-name="Trazado 75" d="M85.1,51.7h2.09V67.459H85.1Z" transform="translate(-73.2 -51.539)" fill="#fff"/>
      <path id="Trazado_76" data-name="Trazado 76" d="M99.217,60.832H90.051a4.424,4.424,0,0,0,1.286,2.412,4.057,4.057,0,0,0,2.734.965,4.49,4.49,0,0,0,3.216-1.286l1.126,1.286a3.2,3.2,0,0,1-1.93,1.286,6.666,6.666,0,0,1-2.573.482,7.32,7.32,0,0,1-3.216-.8,4.4,4.4,0,0,1-2.09-2.09,6.552,6.552,0,0,1-.8-2.894,5.553,5.553,0,0,1,.8-2.895,5.227,5.227,0,0,1,2.09-2.09,6.018,6.018,0,0,1,2.895-.8,5.553,5.553,0,0,1,2.894.8,4.887,4.887,0,0,1,1.93,2.09,6.122,6.122,0,0,1,.643,3.055C99.217,60.35,99.217,60.511,99.217,60.832Zm-8.04-3.859a4.226,4.226,0,0,0-1.126,2.412h7.236a3.372,3.372,0,0,0-1.126-2.251,3.273,3.273,0,0,0-2.412-.965A3.322,3.322,0,0,0,91.177,56.973Z" transform="translate(-71.559 -49.897)" fill="#fff"/>
      <path id="Trazado_77" data-name="Trazado 77" d="M107.6,54.682v9.648a5.117,5.117,0,0,1-5.789,5.789,9.363,9.363,0,0,1-3.055-.482,5.8,5.8,0,0,1-2.412-1.286l.965-1.608a5.561,5.561,0,0,0,1.93,1.126,6.25,6.25,0,0,0,2.412.322,3.411,3.411,0,0,0,3.859-3.859v-.965a4.561,4.561,0,0,1-1.769,1.286,5.136,5.136,0,0,1-2.251.482,5.507,5.507,0,0,1-2.895-.643,6.022,6.022,0,0,1-2.09-1.93,5.553,5.553,0,0,1-.8-2.894,6.018,6.018,0,0,1,.8-2.894,4.887,4.887,0,0,1,2.09-1.93,5.507,5.507,0,0,1,2.895-.643,6.452,6.452,0,0,1,2.412.482,3.931,3.931,0,0,1,1.769,1.447V54.361h1.93Zm-3.859,8.523a3.8,3.8,0,0,0,1.447-1.286,3.429,3.429,0,0,0,.482-1.93,3,3,0,0,0-1.126-2.573,3.862,3.862,0,0,0-6.593,2.573,4.282,4.282,0,0,0,.482,1.93,3.8,3.8,0,0,0,1.447,1.286,4.1,4.1,0,0,0,3.859,0Z" transform="translate(-66.755 -50.019)" fill="#fff"/>
      <path id="Trazado_78" data-name="Trazado 78" d="M113.223,57.167a4.606,4.606,0,0,1,1.286,3.377V67.3h-1.93V65.851a2.566,2.566,0,0,1-1.447,1.126,5.136,5.136,0,0,1-2.251.482,4.636,4.636,0,0,1-3.055-.965,3.147,3.147,0,0,1,0-4.824,4.981,4.981,0,0,1,3.377-.965h3.216v-.482a3.057,3.057,0,0,0-.8-2.09,3.144,3.144,0,0,0-2.251-.643,8.071,8.071,0,0,0-1.93.322,5.03,5.03,0,0,0-1.608.8l-.8-1.608a8.664,8.664,0,0,1,2.09-1.126,6.665,6.665,0,0,1,2.573-.322A9.044,9.044,0,0,1,113.223,57.167Zm-2.09,8.2a2.837,2.837,0,0,0,1.286-1.447V62.313H109.2c-1.769,0-2.573.643-2.573,1.769a1.305,1.305,0,0,0,.643,1.286,3.242,3.242,0,0,0,1.769.482A3.125,3.125,0,0,0,111.132,65.368Zm0-13.668h2.573l-3.538,2.734h-1.93Z" transform="translate(-61.283 -51.539)" fill="#fff"/>
      <path id="Trazado_79" data-name="Trazado 79" d="M124.123,55.708a4.607,4.607,0,0,1,1.286,3.377v6.754h-1.93V64.392a2.566,2.566,0,0,1-1.447,1.126,5.136,5.136,0,0,1-2.251.482,4.637,4.637,0,0,1-3.055-.965,3.147,3.147,0,0,1,0-4.824,4.981,4.981,0,0,1,3.377-.965h3.216v-.482a3.057,3.057,0,0,0-.8-2.09,3.144,3.144,0,0,0-2.251-.643,8.07,8.07,0,0,0-1.93.322,5.03,5.03,0,0,0-1.608.8l-.8-1.608a8.664,8.664,0,0,1,2.09-1.126,6.665,6.665,0,0,1,2.573-.322A8.061,8.061,0,0,1,124.123,55.708Zm-1.93,8.2a2.838,2.838,0,0,0,1.286-1.447V60.854h-3.216c-1.769,0-2.573.643-2.573,1.769a1.305,1.305,0,0,0,.643,1.286,3.242,3.242,0,0,0,1.769.482A3.348,3.348,0,0,0,122.193,63.909Z" transform="translate(-54.655 -50.08)" fill="#fff"/>
      <path id="Trazado_80" data-name="Trazado 80" d="M138.139,51.761V67.52h-1.93V65.751A3.932,3.932,0,0,1,134.44,67.2a5.136,5.136,0,0,1-2.251.482,5.507,5.507,0,0,1-2.894-.643,5.227,5.227,0,0,1-2.09-2.09,6.207,6.207,0,0,1,0-6.111,4.4,4.4,0,0,1,2.09-2.09,5.507,5.507,0,0,1,2.894-.643,5.136,5.136,0,0,1,2.251.482,7.14,7.14,0,0,1,1.769,1.286V51.6h1.93Zm-3.859,13.508a2.838,2.838,0,0,0,1.286-1.447,4.771,4.771,0,0,0,0-4.181,3.78,3.78,0,0,0-5.146-1.447,2.838,2.838,0,0,0-1.286,1.447,4.77,4.77,0,0,0,0,4.181,3.8,3.8,0,0,0,1.286,1.447,4.1,4.1,0,0,0,3.859,0Z" transform="translate(-48.088 -51.6)" fill="#fff"/>
      <path id="Trazado_81" data-name="Trazado 81" d="M137.995,65.174a4.4,4.4,0,0,1-2.09-2.09,6.553,6.553,0,0,1-.8-2.894,5.553,5.553,0,0,1,.8-2.895,5.227,5.227,0,0,1,2.09-2.09,6.207,6.207,0,0,1,6.111,0,5.227,5.227,0,0,1,2.09,2.09,6.018,6.018,0,0,1,.8,2.895,5.553,5.553,0,0,1-.8,2.894,5.227,5.227,0,0,1-2.09,2.09,6.207,6.207,0,0,1-6.111,0Zm4.985-1.608a2.838,2.838,0,0,0,1.286-1.447,4.77,4.77,0,0,0,0-4.181,3.78,3.78,0,0,0-5.146-1.447,2.838,2.838,0,0,0-1.286,1.447,4.771,4.771,0,0,0,0,4.181,3.8,3.8,0,0,0,1.286,1.447,4.282,4.282,0,0,0,1.93.482A3.82,3.82,0,0,0,142.979,63.566Z" transform="translate(-42.798 -49.897)" fill="#fff"/>
      <path id="Trazado_82" data-name="Trazado 82" d="M153.388,55.637a5.144,5.144,0,0,1,1.286,3.7v6.432h-2.09V59.5a3.329,3.329,0,0,0-.8-2.412,3.181,3.181,0,0,0-2.251-.8,3.4,3.4,0,0,0-2.573.965,3.782,3.782,0,0,0-.965,2.734v5.789H143.9V54.512h1.93v1.769a4.084,4.084,0,0,1,1.608-1.286,5.37,5.37,0,0,1,2.412-.482A4.135,4.135,0,0,1,153.388,55.637Z" transform="translate(-37.447 -49.848)" fill="#fff"/>
      <path id="Trazado_83" data-name="Trazado 83" d="M163.739,51.761V67.52h-1.93V65.751A3.931,3.931,0,0,1,160.04,67.2a5.136,5.136,0,0,1-2.251.482,5.507,5.507,0,0,1-2.895-.643,5.227,5.227,0,0,1-2.09-2.09,6.207,6.207,0,0,1,0-6.111,4.4,4.4,0,0,1,2.09-2.09,5.507,5.507,0,0,1,2.895-.643,5.136,5.136,0,0,1,2.251.482,7.14,7.14,0,0,1,1.769,1.286V51.6h1.93Zm-3.859,13.508a2.838,2.838,0,0,0,1.286-1.447,4.77,4.77,0,0,0,0-4.181,3.78,3.78,0,0,0-5.146-1.447,2.837,2.837,0,0,0-1.286,1.447,4.77,4.77,0,0,0,0,4.181,3.8,3.8,0,0,0,1.286,1.447,4.1,4.1,0,0,0,3.859,0Z" transform="translate(-32.522 -51.6)" fill="#fff"/>
      <path id="Trazado_84" data-name="Trazado 84" d="M172.117,60.832h-9.166a3.6,3.6,0,0,0,1.286,2.412,4.058,4.058,0,0,0,2.734.965,4.49,4.49,0,0,0,3.216-1.286l1.126,1.286a3.2,3.2,0,0,1-1.93,1.286,6.666,6.666,0,0,1-2.573.482,7.32,7.32,0,0,1-3.216-.8,4.4,4.4,0,0,1-2.09-2.09,6.553,6.553,0,0,1-.8-2.894,5.553,5.553,0,0,1,.8-2.895,5.227,5.227,0,0,1,2.09-2.09,5.612,5.612,0,0,1,5.789,0,4.887,4.887,0,0,1,1.93,2.09,6.122,6.122,0,0,1,.643,3.055C172.117,60.35,172.117,60.511,172.117,60.832Zm-8.04-3.859a4.226,4.226,0,0,0-1.126,2.412h7.236a3.372,3.372,0,0,0-1.126-2.251,3.272,3.272,0,0,0-2.412-.965A3.542,3.542,0,0,0,164.077,56.973Z" transform="translate(-27.232 -49.897)" fill="#fff"/>
      <path id="Trazado_85" data-name="Trazado 85" d="M183.7,54.622V69.9h-2.09V64.109A2.861,2.861,0,0,1,179.84,65.4a5.136,5.136,0,0,1-2.251.482,5.507,5.507,0,0,1-2.894-.643,5.227,5.227,0,0,1-2.09-2.09,6.207,6.207,0,0,1,0-6.111,4.4,4.4,0,0,1,2.09-2.09,5.507,5.507,0,0,1,2.894-.643,5.136,5.136,0,0,1,2.251.482,5.027,5.027,0,0,1,1.769,1.447V54.461h2.09Zm-3.859,9.005a2.838,2.838,0,0,0,1.286-1.447,4.77,4.77,0,0,0,0-4.181,3.78,3.78,0,0,0-5.146-1.447A2.838,2.838,0,0,0,174.694,58a4.771,4.771,0,0,0,0,4.181,3.8,3.8,0,0,0,1.286,1.447,4.1,4.1,0,0,0,3.859,0Z" transform="translate(-20.482 -49.958)" fill="#fff"/>
      <path id="Trazado_86" data-name="Trazado 86" d="M191.813,54.561V65.817h-1.93V64.048a4.084,4.084,0,0,1-1.608,1.286,5.136,5.136,0,0,1-2.251.482,5.006,5.006,0,0,1-3.538-1.286,5.144,5.144,0,0,1-1.286-3.7V54.4h2.09v6.271a3.329,3.329,0,0,0,.8,2.412,3.181,3.181,0,0,0,2.251.8,3.4,3.4,0,0,0,2.573-.965,3.782,3.782,0,0,0,.965-2.734V54.4h1.93Z" transform="translate(-14.767 -49.897)" fill="#fff"/>
      <path id="Trazado_87" data-name="Trazado 87" d="M200.617,60.832h-9.166a3.6,3.6,0,0,0,1.286,2.412,4.057,4.057,0,0,0,2.734.965,4.49,4.49,0,0,0,3.216-1.286l1.126,1.286a3.2,3.2,0,0,1-1.93,1.286,6.666,6.666,0,0,1-2.573.482,7.32,7.32,0,0,1-3.216-.8,4.4,4.4,0,0,1-2.09-2.09,6.552,6.552,0,0,1-.8-2.894,5.553,5.553,0,0,1,.8-2.895,5.227,5.227,0,0,1,2.09-2.09,5.612,5.612,0,0,1,5.789,0,4.887,4.887,0,0,1,1.93,2.09,6.122,6.122,0,0,1,.643,3.055C200.617,60.35,200.617,60.511,200.617,60.832Zm-8.04-3.859a4.226,4.226,0,0,0-1.126,2.412h7.236a3.372,3.372,0,0,0-1.126-2.251,3.273,3.273,0,0,0-2.412-.965A3.542,3.542,0,0,0,192.577,56.973Z" transform="translate(-9.902 -49.897)" fill="#fff"/>
      <path id="Trazado_88" data-name="Trazado 88" d="M201.338,54.882a6.123,6.123,0,0,1,2.573-.482v1.93h-.482a3.4,3.4,0,0,0-2.573.965,3.931,3.931,0,0,0-.965,2.895v5.628H197.8V54.561h1.93v1.93A3.135,3.135,0,0,1,201.338,54.882Z" transform="translate(-4.673 -49.897)" fill="#fff"/>
      <path id="Trazado_89" data-name="Trazado 89" d="M213.417,62.474h-9.166a3.6,3.6,0,0,0,1.286,2.412,4.058,4.058,0,0,0,2.734.965,4.49,4.49,0,0,0,3.216-1.286l1.126,1.286a3.2,3.2,0,0,1-1.93,1.286,6.666,6.666,0,0,1-2.573.482,7.32,7.32,0,0,1-3.216-.8,4.4,4.4,0,0,1-2.09-2.09,6.552,6.552,0,0,1-.8-2.895,5.553,5.553,0,0,1,.8-2.894,5.227,5.227,0,0,1,2.09-2.09,5.612,5.612,0,0,1,5.789,0,4.887,4.887,0,0,1,1.93,2.09,6.122,6.122,0,0,1,.643,3.055C213.417,61.992,213.417,62.152,213.417,62.474Zm-8.04-3.859a4.226,4.226,0,0,0-1.126,2.412h7.236a3.372,3.372,0,0,0-1.126-2.251,3.273,3.273,0,0,0-2.412-.965A3.542,3.542,0,0,0,205.377,58.615Zm3.859-6.915h2.573l-3.538,2.734h-1.93Z" transform="translate(-2.119 -51.539)" fill="#fff"/>
      <path id="Trazado_90" data-name="Trazado 90" d="M211.73,65.556a10.708,10.708,0,0,1-1.93-.965l.8-1.608a5.944,5.944,0,0,0,1.769.8,9.412,9.412,0,0,0,2.09.322c1.769,0,2.734-.482,2.734-1.608a1.228,1.228,0,0,0-.322-.8,5.354,5.354,0,0,0-.965-.482,13.932,13.932,0,0,0-1.608-.322c-.965-.161-1.608-.322-2.251-.482a2.342,2.342,0,0,1-1.447-.965,2.418,2.418,0,0,1-.643-1.769,3.054,3.054,0,0,1,1.286-2.412,5.276,5.276,0,0,1,3.377-.965,10.858,10.858,0,0,1,2.251.322,4.522,4.522,0,0,1,1.769.8l-.8,1.608a5.433,5.433,0,0,0-3.216-.965,3.429,3.429,0,0,0-1.93.482,1.214,1.214,0,0,0-.643,1.126,1.228,1.228,0,0,0,.322.8l.965.482a13.93,13.93,0,0,0,1.608.322c.965.161,1.608.322,2.251.482a3.8,3.8,0,0,1,1.447.965,2.926,2.926,0,0,1,.643,1.769A3.054,3.054,0,0,1,218,64.913a5.777,5.777,0,0,1-3.538.965A7.523,7.523,0,0,1,211.73,65.556Z" transform="translate(2.624 -49.958)" fill="#fff"/>
    </g>
  </g>
</svg>
