<?xml version="1.0" encoding="utf-8"?>
<!-- Generator: Adobe Illustrator 24.3.0, SVG Export Plug-In . SVG Version: 6.00 Build 0)  -->
<svg version="1.1" id="Capa_1" xmlns="http://www.w3.org/2000/svg" xmlns:xlink="http://www.w3.org/1999/xlink" x="0px" y="0px"
	 viewBox="0 0 89.7 89.7" style="enable-background:new 0 0 89.7 89.7;" xml:space="preserve">
<style type="text/css">
	.st0{fill:#2E5F98;}
	.st1{opacity:0.7;fill:#FFFFFF;}
	.st2{fill:#FFFFFF;}
</style>
<rect class="st0" width="89.7" height="89.7"/>
<g>
	<path class="st1" d="M57.4,40.4c0.9,4.7,0.9,9.8-0.1,14.4c-0.8,3.9-2.4,7.9-5,11c-4.6,5.2-10.7,5.2-17.2,4.5
		c-2-0.2-4.6,0.1-6.4,1.2c-0.5,0.3-3.3,2-1.2,2.3c13.1,1.5,30-0.7,36.6-13.8c3.3-6.5,3.9-14.9,2.5-22C66.2,36.2,57,38.3,57.4,40.4
		L57.4,40.4z"/>
	<path class="st2" d="M45.4,44.7c0.5,2.3,0.4,4.9-0.2,7.2c-1.2,5.2-4,5.9-8.8,5.4c-3.6-0.4-9.7,4.7-3.5,5.3
		c7.9,0.9,17.3-1.3,20.7-9.3c1.4-3.4,1.7-7.5,1-11.1C54,39,44.8,41.2,45.4,44.7L45.4,44.7z"/>
	<path class="st1" d="M32.4,50.9c-0.9-4.8-0.8-10.1,0.4-14.8c2.9-12,12.8-14.8,24.1-13.5c4.5,0.5,9.4-6,3.2-6.7
		c-13.8-1.5-29.2,1.7-35,15.8c-2.7,6.7-3.2,14.6-1.8,21.7C24,57.6,33.2,55.2,32.4,50.9L32.4,50.9z"/>
	<path class="st2" d="M44.3,46.6c-0.4-2.3-0.4-4.8,0.1-7c1-4.8,3.2-6.4,7.8-5.9c2.1,0.2,4.8-0.3,6.5-1.7c1.3-1.2,1.2-2.7-0.8-2.9
		C50,28.2,40,29.8,36.3,37.9c-1.6,3.4-1.8,7.6-1.1,11.2C35.7,51.9,44.9,49.7,44.3,46.6L44.3,46.6z"/>
	<polygon class="st2" points="35.7,55.3 26.1,59.3 35.3,64.9 35.7,55.3 	"/>
	<polygon class="st2" points="53.1,26.7 53.5,35.6 62.6,30.1 53.1,26.7 	"/>
</g>
</svg>
