<svg xmlns="http://www.w3.org/2000/svg" width="103.74" height="93.205" viewBox="0 0 103.74 93.205">
  <g id="Grupo_5" data-name="Grupo 5" transform="translate(0)">
    <ellipse id="Elipse_3" data-name="Elipse 3" cx="2.026" cy="2.026" rx="2.026" ry="2.026" transform="translate(49.844 20.262)" fill="#2e5f98"/>
    <path id="Trazado_36" data-name="Trazado 36" d="M597.621,337a28.308,28.308,0,0,0,7.9-19.376c0-17.606-17.595-30.393-35.661-30.393-18.241,0-33.212,12.577-34.37,28.417-17.371.872-33.708,13.4-33.708,30.341a28.311,28.311,0,0,0,7.9,19.377,12.321,12.321,0,0,1-3.255,11.609,2.026,2.026,0,0,0,1.432,3.46,22.35,22.35,0,0,0,15.485-6.259,46.178,46.178,0,0,0,14.1,2.207c18.239,0,33.208-12.574,34.37-28.413a45.5,45.5,0,0,0,12.145-2.161,22.354,22.354,0,0,0,15.485,6.259,2.026,2.026,0,0,0,1.434-3.458A12.324,12.324,0,0,1,597.621,337Zm-60.177,35.331a40.957,40.957,0,0,1-13.882-2.391,2.025,2.025,0,0,0-2.245.514,18.293,18.293,0,0,1-9.094,5.4,16.388,16.388,0,0,0,1.235-12.06,2.01,2.01,0,0,0-.5-.857,24.351,24.351,0,0,1-7.129-16.944c0-14.278,14.474-26.339,31.609-26.339,16.178,0,30.392,11.25,30.392,26.339C567.836,360.519,554.2,372.336,537.444,372.336Zm48.544-30.244a2.03,2.03,0,0,0-2.245-.514,39.883,39.883,0,0,1-11.937,2.341,29.006,29.006,0,0,0-10.947-20.212h26.427a2.025,2.025,0,1,0,0-4.051H554.633a37.785,37.785,0,0,0-15.078-3.994c1.163-13.608,14.312-24.373,30.307-24.373,17.134,0,31.609,12.061,31.609,26.341a24.347,24.347,0,0,1-7.129,16.944,2.034,2.034,0,0,0-.5.855,16.387,16.387,0,0,0,1.236,12.06A18.277,18.277,0,0,1,585.988,342.092Z" transform="translate(-501.783 -287.236)" fill="#2e5f98"/>
    <path id="Trazado_37" data-name="Trazado 37" d="M566.2,300.126h-25.53a2.026,2.026,0,0,0,0,4.052H566.2a2.026,2.026,0,0,0,0-4.052Z" transform="translate(-480.699 -279.864)" fill="#2e5f98"/>
    <path id="Trazado_38" data-name="Trazado 38" d="M539.984,325.2l-6.168-.017.255-.605a9.742,9.742,0,0,0-.512-8.575,2.549,2.549,0,0,0-1.591-1.212l.027.008.006,0c.135.033.247.063.072.017l-.035-.008-.072-.019-.061-.016c-1.012-.258-.267-.068.06.016h0a2.6,2.6,0,0,0-3.2,2.485,7.337,7.337,0,0,1-1.834,4.853l-3.438,3.891a1.249,1.249,0,0,0-1.045-.568h-6.712a1.247,1.247,0,0,0-1.248,1.248v15.1a1.247,1.247,0,0,0,1.248,1.247h6.712a1.244,1.244,0,0,0,1.133-.729,8.728,8.728,0,0,0,4.537,1.28h11.862a3.266,3.266,0,0,0,3.222-3.381c-.038-.8,0-11.551,0-11.79A3.23,3.23,0,0,0,539.984,325.2ZM521.2,340.549h-4.216V327.942H521.2Zm19.509-.219a.731.731,0,0,1-.729.767H528.119a6.21,6.21,0,0,1-3.9-1.38l-.525-.424v-9.738l5.106-5.778a9.827,9.827,0,0,0,2.46-6.506.069.069,0,0,1,.127-.033,7.234,7.234,0,0,1,.382,6.365l-.986,2.333a1.248,1.248,0,0,0,1.146,1.734l8.048.024a.731.731,0,0,1,.729.731c0,.237,0,.882,0,1.756C540.687,335,540.674,339.571,540.71,340.33Z" transform="translate(-494.516 -271.563)" fill="#2e5f98"/>
  </g>
</svg>
