<?xml version="1.0" encoding="utf-8"?>
<!-- Generator: Adobe Illustrator 24.3.0, SVG Export Plug-In . SVG Version: 6.00 Build 0)  -->
<svg version="1.1" xmlns="http://www.w3.org/2000/svg" xmlns:xlink="http://www.w3.org/1999/xlink" x="0px" y="0px"
	 viewBox="0 0 295.7 311.6" style="enable-background:new 0 0 295.7 311.6;" xml:space="preserve">
<style type="text/css">
	.st0{fill:url(#shape_3_1_);}
	.st1{fill:url(#shape_2_1_);}
	.st2{fill-rule:evenodd;clip-rule:evenodd;fill:#FFFFFF;}
</style>
<g id="BACKGROUND">
</g>
<g id="OBJECTS">
	<g>
		
			<image style="overflow:visible;opacity:0.25;" width="300" height="301" xlink:href="B342D52367FEB11D.png"  transform="matrix(1 0 0 1 -1.7766 15.6777)">
		</image>
		<g>
			<g>
				<linearGradient id="shape_3_1_" gradientUnits="userSpaceOnUse" x1="147.8398" y1="268.7635" x2="147.8398" y2="37.1625">
					<stop  offset="0" style="stop-color:#20B038"/>
					<stop  offset="1" style="stop-color:#60D66A"/>
				</linearGradient>
				<path id="shape_3_12_" class="st0" d="M32.6,268.8l16.3-59.5c-10-17.4-15.3-37.2-15.3-57.4C33.5,88.6,85,37.2,148.3,37.2
					c30.7,0,59.5,12,81.2,33.7c21.7,21.7,33.6,50.5,33.6,81.2c0,63.3-51.5,114.8-114.8,114.8c0,0,0,0,0,0h-0.1
					c-19.2,0-38.1-4.8-54.9-14L32.6,268.8z"/>
				<linearGradient id="shape_2_1_" gradientUnits="userSpaceOnUse" x1="147.8405" y1="272.9146" x2="147.8405" y2="33.0083">
					<stop  offset="0" style="stop-color:#F9F9F9"/>
					<stop  offset="1" style="stop-color:#FFFFFF"/>
				</linearGradient>
				<path id="shape_2_12_" class="st1" d="M28.4,272.9l16.9-61.6c-10.4-18-15.9-38.5-15.9-59.4C29.4,86.3,82.8,33,148.3,33
					c31.8,0,61.7,12.4,84.1,34.9c22.5,22.5,34.8,52.3,34.8,84.1c0,65.5-53.4,118.9-118.9,118.9c0,0,0,0,0,0h-0.1
					c-19.9,0-39.5-5-56.8-14.5L28.4,272.9z M94.4,234.9L98,237c15.2,9,32.6,13.8,50.3,13.8h0c54.5,0,98.8-44.3,98.8-98.8
					c0-26.4-10.3-51.2-28.9-69.9c-18.7-18.7-43.5-29-69.9-29c-54.5,0-98.9,44.3-98.9,98.8c0,18.7,5.2,36.9,15.1,52.6l2.4,3.7
					l-10,36.5L94.4,234.9z"/>
				<path id="shape_1_12_" class="st2" d="M118.6,102.2c-2.2-4.9-4.6-5-6.7-5.1c-1.7-0.1-3.7-0.1-5.7-0.1c-2,0-5.2,0.7-7.9,3.7
					c-2.7,3-10.4,10.2-10.4,24.8c0,14.6,10.6,28.7,12.1,30.7c1.5,2,20.6,32.9,50.8,44.8c25.1,9.9,30.2,7.9,35.7,7.4
					c5.4-0.5,17.6-7.2,20.1-14.1c2.5-6.9,2.5-12.9,1.7-14.1c-0.7-1.2-2.7-2-5.7-3.5c-3-1.5-17.6-8.7-20.3-9.7
					c-2.7-1-4.7-1.5-6.7,1.5c-2,3-7.7,9.7-9.4,11.6c-1.7,2-3.5,2.2-6.4,0.7c-3-1.5-12.5-4.6-23.9-14.7c-8.8-7.9-14.8-17.6-16.5-20.6
					c-1.7-3-0.2-4.6,1.3-6.1c1.3-1.3,3-3.5,4.5-5.2c1.5-1.7,2-3,3-5c1-2,0.5-3.7-0.2-5.2C127,122.8,121.3,108.1,118.6,102.2z"/>
			</g>
		</g>
	</g>
</g>
<g id="DESIGNED_BY_FREEPIK">
</g>
</svg>
